<?xml version="1.0" encoding="UTF-8" standalone="no"?>
<!-- Created with Inkscape (http://www.inkscape.org/) -->

<svg
   xmlns:dc="http://purl.org/dc/elements/1.1/"
   xmlns:cc="http://creativecommons.org/ns#"
   xmlns:rdf="http://www.w3.org/1999/02/22-rdf-syntax-ns#"
   xmlns:svg="http://www.w3.org/2000/svg"
   xmlns="http://www.w3.org/2000/svg"
   xmlns:sodipodi="http://sodipodi.sourceforge.net/DTD/sodipodi-0.dtd"
   xmlns:inkscape="http://www.inkscape.org/namespaces/inkscape"
   width="196.83553mm"
   height="173.34093mm"
   viewBox="0 0 196.83553 173.34093"
   version="1.1"
   id="svg4519"
   sodipodi:docname="base.svg"
   inkscape:version="0.92.1 r15371">
  <defs
     id="defs4513" />
  <sodipodi:namedview
     id="base"
     pagecolor="#ffffff"
     bordercolor="#666666"
     borderopacity="1.0"
     inkscape:pageopacity="0.0"
     inkscape:pageshadow="2"
     inkscape:zoom="5.6"
     inkscape:cx="43.939283"
     inkscape:cy="251.67882"
     inkscape:document-units="mm"
     inkscape:current-layer="g4489"
     showgrid="false"
     fit-margin-top="0"
     fit-margin-left="0"
     fit-margin-right="0"
     fit-margin-bottom="0"
     inkscape:pagecheckerboard="false"
     showborder="false"
     inkscape:measure-start="0,0"
     inkscape:measure-end="0,0"
     showguides="true"
     inkscape:guide-bbox="true"
     inkscape:window-width="1918"
     inkscape:window-height="1061"
     inkscape:window-x="0"
     inkscape:window-y="412"
     inkscape:window-maximized="0" />
  <metadata
     id="metadata4516">
    <rdf:RDF>
      <cc:Work
         rdf:about="">
        <dc:format>image/svg+xml</dc:format>
        <dc:type
           rdf:resource="http://purl.org/dc/dcmitype/StillImage" />
        <dc:title></dc:title>
      </cc:Work>
    </rdf:RDF>
  </metadata>
  <g
     inkscape:label="Layer 1"
     inkscape:groupmode="layer"
     id="layer1"
     transform="translate(-2.8798652,-18.317629)">
    <g
       transform="matrix(0.26458333,0,0,0.26458333,-112.308,-44.77679)"
       id="g4489"
       style="fill:none">
      <path
         sodipodi:nodetypes="ssscccccccsscss"
         id="path5142"
         d="m 1186.8703,308.95123 c 0,143.20003 0,410.86158 0,410.86158 0,13.26 -10.745,24.005 -24,24.005 H 879.75029 c -3.5054,2e-5 -6.9682,0.76792 -10.14,2.2497 l -293.09,136.72 c -12.02,5.61 -26.3,0.41 -31.9,-11.6 l -98.44,-211.03 c -5.6059,-12.014 -0.41011,-26.295 11.605,-31.898 l 130.58,-60.9 c 8.452,-3.9422 13.855,-12.424 13.855,-21.75 l -10e-6,-236.6583 c 0,-13.255 10.745,-24.00256 24,-24.00756 0,0 448.09752,2e-5 536.64912,0 11.3157,0 24.0009,12.69188 24.0009,24.00758 z"
         style="fill:none;stroke:#000000;stroke-linecap:round"
         inkscape:connector-curvature="0" />
    </g>
  </g>
</svg>
