<?xml version="1.0" encoding="UTF-8"?>
<svg width="180.45mm" height="138.06mm" version="1.1" viewBox="0 0 180.45 138.06" xmlns="http://www.w3.org/2000/svg" xmlns:cc="http://creativecommons.org/ns#" xmlns:dc="http://purl.org/dc/elements/1.1/" xmlns:rdf="http://www.w3.org/1999/02/22-rdf-syntax-ns#">
 <metadata>
  <rdf:RDF>
   <cc:Work rdf:about="">
    <dc:format>image/svg+xml</dc:format>
    <dc:type rdf:resource="http://purl.org/dc/dcmitype/StillImage"/>
    <dc:title/>
   </cc:Work>
  </rdf:RDF>
 </metadata>
 <g transform="translate(-13.201 -132.54)">
  <g transform="matrix(.26458 0 0 .26458 -8.4395 -6.8825)">
   <g fill="none" stroke="#000" stroke-linecap="round">
    <path d="m300 552.24v-3.7056h-52.8v3.7056h-3.072v13.229h3.072v18.931h-3.072v13.229h3.072v3.7056h52.8v-3.7056h3.072v-13.229h-3.072v-18.931h3.072v-13.229z"/>
    <path d="m204.29 912.54 47.856-22.32-5.28-11.309-47.846 22.32z"/>
    <path d="m242.43 994.32 47.846-22.31-5.2704-11.309-47.856 22.31z"/>
    <path d="m345.03 932.7-47.856 22.32 5.28 11.309 47.846-22.32z"/>
    <path d="m306.89 850.92-47.846 22.31 5.2704 11.309 47.856-22.31z"/>
    <path d="m697.2 771.73v3.7056h-3.072v13.229h3.072v18.931h-3.072v13.229h3.072v3.7056h52.8v-3.7056h3.072v-13.229h-3.072v-18.931h3.072v-13.229h-3.072v-3.7056z"/>
    <path d="m697.2 699.73v3.7056h-3.072v13.229h3.072v18.931h-3.072v13.229h3.072v3.7056h52.8v-3.7056h3.072v-13.229h-3.072v-18.931h3.072v-13.229h-3.072v-3.7056z"/>
    <path d="m697.2 627.73v3.7056h-3.072v13.229h3.072v18.931h-3.072v13.229h3.072v3.7056h52.8v-3.7056h3.072v-13.229h-3.072v-18.931h3.072v-13.229h-3.072v-3.7056z"/>
    <path d="m697.2 555.74v3.7056h-3.072v13.229h3.072v18.931h-3.072v13.229h3.072v3.7056h52.8v-3.7056h3.072v-13.229h-3.072v-18.931h3.072v-13.229h-3.072v-3.7056z"/>
    <path d="m319.2 548.54v3.7056h-3.072v13.229h3.072v18.931h-3.072v13.229h3.072v3.7056h52.8v-3.7056h3.072v-13.229h-3.072v-18.931h3.072v-13.229h-3.072v-3.7056z"/>
    <path d="m535.2 615.73v3.7056h-3.072v13.229h3.072v18.931h-3.072v13.229h3.072v3.7056h52.8v-3.7056h3.072v-13.229h-3.072v-18.931h3.072v-13.229h-3.072v-3.7056z"/>
    <path d="m229.27 972.92 3.36-1.5744 1.296 2.784 11.99-5.5872-1.296-2.784 17.155-7.9968 1.296 2.784 11.99-5.5968-1.296-2.784 3.36-1.5648-22.32-47.856-3.36 1.5744-1.296-2.784-11.99 5.5872 1.296 2.784-17.155 7.9968-1.296-2.784-11.99 5.5968 1.296 2.784-3.36 1.5648z"/>
    <path d="m294.52 942.49 3.36-1.5744 1.296 2.784 11.99-5.5872-1.296-2.784 17.155-7.9968 1.296 2.784 11.99-5.5968-1.296-2.784 3.36-1.5648-22.32-47.856-3.36 1.5744-1.296-2.784-11.99 5.5872 1.296 2.784-17.155 7.9968-1.296-2.784-11.99 5.5968 1.296 2.784-3.36 1.5648z"/>
    <path d="m391.2 831.73v3.7056h-3.072v13.229h3.072v18.931h-3.072v13.229h3.072v3.7056h52.8v-3.7056h3.072v-13.229h-3.072v-18.931h3.072v-13.229h-3.072v-3.7056z"/>
    <path d="m463.2 825.69v3.7056h-3.072v13.229h3.072v18.931h-3.072v13.229h3.072v3.7056h52.8v-3.7056h3.072v-13.229h-3.072v-18.931h3.072v-13.229h-3.072v-3.7056z"/>
    <path d="m607.2 843.73v3.7056h-3.072v13.229h3.072v18.931h-3.072v13.229h3.072v3.7056h52.8v-3.7056h3.072v-13.229h-3.072v-18.931h3.072v-13.229h-3.072v-3.7056z"/>
    <path d="m319.2 764.53v3.7056h-3.072v13.229h3.072v18.931h-3.072v13.229h3.072v3.7056h52.8v-3.7056h3.072v-13.229h-3.072v-18.931h3.072v-13.229h-3.072v-3.7056z"/>
    <path d="m391.2 759.73v3.7056h-3.072v13.229h3.072v18.931h-3.072v13.229h3.072v3.7056h52.8v-3.7056h3.072v-13.229h-3.072v-18.931h3.072v-13.229h-3.072v-3.7056z"/>
    <path d="m463.2 753.69v3.7056h-3.072v13.229h3.072v18.931h-3.072v13.229h3.072v3.7056h52.8v-3.7056h3.072v-13.229h-3.072v-18.931h3.072v-13.229h-3.072v-3.7056z"/>
    <path d="m535.2 759.73v3.7056h-3.072v13.229h3.072v18.931h-3.072v13.229h3.072v3.7056h52.8v-3.7056h3.072v-13.229h-3.072v-18.931h3.072v-13.229h-3.072v-3.7056z"/>
    <path d="m607.2 771.73v3.7056h-3.072v13.229h3.072v18.931h-3.072v13.229h3.072v3.7056h52.8v-3.7056h3.072v-13.229h-3.072v-18.931h3.072v-13.229h-3.072v-3.7056z"/>
    <path d="m319.2 692.53v3.7056h-3.072v13.229h3.072v18.931h-3.072v13.229h3.072v3.7056h52.8v-3.7056h3.072v-13.229h-3.072v-18.931h3.072v-13.229h-3.072v-3.7056z"/>
    <path d="m391.2 687.73v3.7056h-3.072v13.229h3.072v18.931h-3.072v13.229h3.072v3.7056h52.8v-3.7056h3.072v-13.229h-3.072v-18.931h3.072v-13.229h-3.072v-3.7056z"/>
    <path d="m463.2 681.69v3.7056h-3.072v13.229h3.072v18.931h-3.072v13.229h3.072v3.7056h52.8v-3.7056h3.072v-13.229h-3.072v-18.931h3.072v-13.229h-3.072v-3.7056z"/>
    <path d="m535.2 687.73v3.7056h-3.072v13.229h3.072v18.931h-3.072v13.229h3.072v3.7056h52.8v-3.7056h3.072v-13.229h-3.072v-18.931h3.072v-13.229h-3.072v-3.7056z"/>
    <path d="m607.2 699.73v3.7056h-3.072v13.229h3.072v18.931h-3.072v13.229h3.072v3.7056h52.8v-3.7056h3.072v-13.229h-3.072v-18.931h3.072v-13.229h-3.072v-3.7056z"/>
    <path d="m391.2 615.73v3.7056h-3.072v13.229h3.072v18.931h-3.072v13.229h3.072v3.7056h52.8v-3.7056h3.072v-13.229h-3.072v-18.931h3.072v-13.229h-3.072v-3.7056z"/>
    <path d="m463.2 609.69v3.7056h-3.072v13.229h3.072v18.931h-3.072v13.229h3.072v3.7056h52.8v-3.7056h3.072v-13.229h-3.072v-18.931h3.072v-13.229h-3.072v-3.7056z"/>
    <path d="m607.2 627.73v3.7056h-3.072v13.229h3.072v18.931h-3.072v13.229h3.072v3.7056h52.8v-3.7056h3.072v-13.229h-3.072v-18.931h3.072v-13.229h-3.072v-3.7056z"/>
    <path d="m535.2 831.73v3.7056h-3.072v13.229h3.072v18.931h-3.072v13.229h3.072v3.7056h52.8v-3.7056h3.072v-13.229h-3.072v-18.931h3.072v-13.229h-3.072v-3.7056z"/>
    <path d="m391.2 543.73v3.7056h-3.072v13.229h3.072v18.931h-3.072v13.229h3.072v3.7056h52.8v-3.7056h3.072v-13.229h-3.072v-18.931h3.072v-13.229h-3.072v-3.7056z"/>
    <path d="m463.2 537.69v3.7056h-3.072v13.229h3.072v18.931h-3.072v13.229h3.072v3.7056h52.8v-3.7056h3.072v-13.229h-3.072v-18.931h3.072v-13.229h-3.072v-3.7056z"/>
    <path d="m535.2 543.73v3.7056h-3.072v13.229h3.072v18.931h-3.072v13.229h3.072v3.7056h52.8v-3.7056h3.072v-13.229h-3.072v-18.931h3.072v-13.229h-3.072v-3.7056z"/>
    <path d="m607.2 555.74v3.7056h-3.072v13.229h3.072v18.931h-3.072v13.229h3.072v3.7056h52.8v-3.7056h3.072v-13.229h-3.072v-18.931h3.072v-13.229h-3.072v-3.7056z"/>
    <path d="m161.31 827.19 1.5744 3.36-2.784 1.296 5.5872 11.99 2.784-1.296 7.9968 17.155-2.784 1.296 5.5968 11.99 2.784-1.296 1.5648 3.36 47.856-22.32-1.5744-3.36 2.784-1.296-5.5872-11.99-2.784 1.296-7.9968-17.155 2.784-1.296-5.5968-11.99-2.784 1.296-1.5648-3.36z"/>
    <path d="m96.058 857.61 1.5744 3.36-2.784 1.296 5.5872 11.99 2.784-1.296 7.9968 17.155-2.784 1.296 5.5968 11.99 2.784-1.296 1.5648 3.36 47.856-22.32-1.5744-3.36 2.784-1.296-5.5872-11.99-2.784 1.296-7.9968-17.155 2.784-1.296-5.5968-11.99-2.784 1.296-1.5648-3.36z"/>
    <path d="m156.91 988.12 1.5744 3.36-2.784 1.296 5.5872 11.99 2.784-1.296 7.9968 17.155-2.784 1.296 5.5968 11.99 2.784-1.296 1.5648 3.36 47.856-22.32-1.5744-3.36 2.784-1.296-5.5872-11.99-2.784 1.296-7.9968-17.155 2.784-1.296-5.5968-11.99-2.784 1.296-1.5648-3.36z"/>
    <path d="m126.48 922.86 1.5744 3.36-2.784 1.296 5.5872 11.99 2.784-1.296 7.9968 17.155-2.784 1.296 5.5968 11.99 2.784-1.296 1.5648 3.36 47.856-22.32-1.5744-3.36 2.784-1.296-5.5872-11.99-2.784 1.296-7.9968-17.155 2.784-1.296-5.5968-11.99-2.784 1.296-1.5648-3.36z"/>
    <path d="m319.2 620.53v3.7056h-3.072v13.229h3.072v18.931h-3.072v13.229h3.072v3.7056h52.8v-3.7056h3.072v-13.229h-3.072v-18.931h3.072v-13.229h-3.072v-3.7056z"/>
    <path d="m679.2 843.73v3.7056h-3.072v13.229h3.072v18.931h-3.072v13.229h3.072v3.7056h52.8v-3.7056h3.072v-13.229h-3.072v-18.931h3.072v-13.229h-3.072v-3.7056z"/>
    <path d="m247.2 799.33h3.7056v3.072h13.229v-3.072h18.931v3.072h13.229v-3.072h3.7056v-52.8h-3.7056v-3.072h-13.229v3.072h-18.931v-3.072h-13.229v3.072h-3.7056z"/>
    <path d="m247.2 691.33h3.7056v3.072h13.229v-3.072h18.931v3.072h13.229v-3.072h3.7056v-52.8h-3.7056v-3.072h-13.229v3.072h-18.931v-3.072h-13.229v3.072h-3.7056z"/>
   </g>
   <g transform="matrix(3.7795 0 0 3.7795 26.506 370.36)"></g>
   <path d="m86.882 850.6c-3.9719 1.8551-5.6994 6.5847-3.857 10.563 29.143 62.923 59.521 127.74 85.118 182.51 1.856 3.9715 6.5851 5.6982 10.563 3.8555 98.201-45.493 196.53-91.615 294.67-137.4 3.9728-1.8532 10.747-3.3552 15.131-3.3552h266.87c4.3838 0 7.9375-3.5537 7.9375-7.9375v-363.43c0-4.3838-3.5537-7.9375-7.9375-7.9375h-513.53c-4.3838 0-7.9377 3.5537-7.9379 7.9375l-0.0126 238.69c-2.3e-4 4.3838-3.2211 9.4396-7.1941 11.292-46.561 21.713-93.304 43.483-139.82 65.208" fill="none" stroke="#000" stroke-width="1px"/>
  </g>
 </g>
</svg>
