<?xml version="1.0" encoding="UTF-8"?>
<svg width="180.45mm" height="138.06mm" version="1.1" viewBox="0 0 180.45 138.06" xmlns="http://www.w3.org/2000/svg" xmlns:cc="http://creativecommons.org/ns#" xmlns:dc="http://purl.org/dc/elements/1.1/" xmlns:rdf="http://www.w3.org/1999/02/22-rdf-syntax-ns#">
 <metadata>
  <rdf:RDF>
   <cc:Work rdf:about="">
    <dc:format>image/svg+xml</dc:format>
    <dc:type rdf:resource="http://purl.org/dc/dcmitype/StillImage"/>
    <dc:title/>
   </cc:Work>
  </rdf:RDF>
 </metadata>
 <g transform="translate(-13.201 -132.54)">
  <g transform="translate(-1.4265 91.109)"></g>
  <path d="m14.548 218.17c-1.0509 0.49083-1.508 1.7422-1.0205 2.7947 7.7107 16.648 15.748 33.798 22.521 48.29 0.49108 1.0508 1.7423 1.5076 2.7947 1.0201 25.982-12.037 51.997-24.24 77.965-36.354 1.0511-0.49034 2.8435-0.88774 4.0034-0.88774h70.608c1.1599 0 2.1001-0.94026 2.1001-2.1001v-96.158c0-1.1599-0.94026-2.1001-2.1001-2.1001h-135.87c-1.1599 0-2.1002 0.94026-2.1002 2.1001l-0.0033 63.154c-6.1e-5 1.1599-0.85225 2.4976-1.9034 2.9878-12.319 5.7448-24.687 11.505-36.994 17.253" fill="none" stroke="#000" stroke-width=".26458px"/>
 </g>
</svg>
